<svg width="187" height="120" viewBox="0 0 187 120" fill="none" xmlns="http://www.w3.org/2000/svg">
<path d="M7.58671 23.3932L24.5867 13.8932L42.0867 3.39317C48.4867 -0.206825 51.9779 0.0942636 56.5867 5.39317L62.4779 11.5943C70.9779 20.2954 70.5867 19.8932 70.5867 28.3932V81.8932C70.5867 92.0942 71.4779 92.0942 63.9779 96.5942L32.5867 115.393C23.7867 120.993 21.9779 118.893 17.9779 115.393L7.97785 104.594C2.37783 98.9943 1.08671 93.8932 1.08671 88.3932V45.3932C0.686715 31.7932 1.47803 27.0942 7.58671 23.3932Z" fill="#A8A7AC" stroke="black"/>
<path d="M67.3033 18.7396L59.9434 10.9098L53.0746 3.94985C50.3721 1.55612 47.1865 3.94993 47.1865 7.42972V13.0847V24.3945V57.8889V69.6337L63.4781 86.0942C68.4781 91.5942 68.7294 91.5942 68.7294 89.5942L68.7294 83.5942L68.7294 79.9499L68.7294 61.997V33.4052C68.8983 24.3622 69.478 21.5942 67.3033 18.7396Z" fill="#EFE4E4"/>
<path d="M53.9776 71.5945C49.3951 67.1575 49.4776 68.0943 38.5025 74.6057L22.978 83.0942L8.47795 90.5942C1.47803 94.0942 2.72088 94.1899 4.27753 96.7007C8.9776 102.594 17.9887 112.77 20.4776 114.779C23.5683 117.273 25.0007 116.49 28.0712 114.811L28.1312 114.779C38.8482 108.92 60.6326 96.5566 62.8751 95.1942C67.9776 92.0942 69.9776 90.652 67.9776 88.5942C65.2119 85.7487 59.1633 76.6156 53.9776 71.5945Z" fill="#EFE4E4"/>
<path d="M12.644 32.8832L30.9213 23.0942L35.8562 28.6624L30.9822 36.9264L27.2659 32.7247L15.4465 39.0549L14.3499 40.9883V68.5159L16.1166 70.531L27.8141 64.2661L32.1398 57.1708L35.978 61.4418L30.7386 70.3053L12.4612 80.0942L6.97803 74.0122V42.2444L12.644 32.8832Z" fill="black"/>
<path d="M99.6016 67.3516C94.9141 67.3516 91.4531 66.1328 89.2188 63.6953C87 61.2578 85.8906 57.4688 85.8906 52.3281C85.8906 42.4375 90.5312 37.4922 99.8125 37.4922C101.078 37.4922 102.391 37.6172 103.75 37.8672C105.109 38.1172 106.242 38.4688 107.148 38.9219C108.07 39.3594 108.531 39.8516 108.531 40.3984C108.531 40.7891 108.375 41.3047 108.062 41.9453C107.75 42.5703 107.375 43.125 106.938 43.6094C106.516 44.0938 106.141 44.3359 105.812 44.3359C105.734 44.3359 105.523 44.2578 105.18 44.1016C104.43 43.7891 103.641 43.5312 102.812 43.3281C102 43.1094 100.961 43 99.6953 43C97.2422 43 95.4219 43.7812 94.2344 45.3438C93.0625 46.8906 92.4766 49.2344 92.4766 52.375C92.4766 55.5156 93.0703 57.8828 94.2578 59.4766C95.4453 61.0703 97.2266 61.8672 99.6016 61.8672C100.836 61.8672 101.906 61.7422 102.812 61.4922C103.734 61.2422 104.633 60.9219 105.508 60.5312C105.555 60.5156 105.695 60.4609 105.93 60.3672C106.164 60.2578 106.336 60.2031 106.445 60.2031C106.852 60.2031 107.242 60.4453 107.617 60.9297C107.992 61.3984 108.297 61.9375 108.531 62.5469C108.766 63.1406 108.883 63.5703 108.883 63.8359C108.883 64.6016 108.367 65.25 107.336 65.7812C106.32 66.3125 105.086 66.7109 103.633 66.9766C102.195 67.2266 100.852 67.3516 99.6016 67.3516ZM121.727 67.3516C118.43 67.3516 115.914 66.3828 114.18 64.4453C112.461 62.5078 111.602 59.7188 111.602 56.0781C111.602 52.4531 112.461 49.6797 114.18 47.7578C115.914 45.8359 118.43 44.875 121.727 44.875C125.023 44.875 127.523 45.8359 129.227 47.7578C130.945 49.6641 131.805 52.4375 131.805 56.0781C131.805 59.7188 130.945 62.5078 129.227 64.4453C127.523 66.3828 125.023 67.3516 121.727 67.3516ZM121.727 62.4531C123.039 62.4531 124 61.9219 124.609 60.8594C125.234 59.7969 125.547 58.2031 125.547 56.0781C125.547 53.9688 125.234 52.3828 124.609 51.3203C124 50.2578 123.039 49.7266 121.727 49.7266C119.133 49.7266 117.836 51.8438 117.836 56.0781C117.836 58.1875 118.148 59.7812 118.773 60.8594C119.414 61.9219 120.398 62.4531 121.727 62.4531ZM145.445 67.3516C142.148 67.3516 139.633 66.3828 137.898 64.4453C136.18 62.5078 135.32 59.7188 135.32 56.0781C135.32 52.4531 136.18 49.6797 137.898 47.7578C139.633 45.8359 142.148 44.875 145.445 44.875C148.742 44.875 151.242 45.8359 152.945 47.7578C154.664 49.6641 155.523 52.4375 155.523 56.0781C155.523 59.7188 154.664 62.5078 152.945 64.4453C151.242 66.3828 148.742 67.3516 145.445 67.3516ZM145.445 62.4531C146.758 62.4531 147.719 61.9219 148.328 60.8594C148.953 59.7969 149.266 58.2031 149.266 56.0781C149.266 53.9688 148.953 52.3828 148.328 51.3203C147.719 50.2578 146.758 49.7266 145.445 49.7266C142.852 49.7266 141.555 51.8438 141.555 56.0781C141.555 58.1875 141.867 59.7812 142.492 60.8594C143.133 61.9219 144.117 62.4531 145.445 62.4531ZM162.555 67.0703C160.883 67.0703 160.047 66.6328 160.047 65.7578V36.9297C160.047 36.4766 160.25 36.1406 160.656 35.9219C161.062 35.6875 161.695 35.5703 162.555 35.5703H163.703C165.375 35.5703 166.211 36.0234 166.211 36.9297V53.4062L166.352 53.4531L171.414 45.9297C171.633 45.6016 171.938 45.3906 172.328 45.2969C172.719 45.1875 173.258 45.1328 173.945 45.1328H175.492C177.055 45.1328 177.836 45.3438 177.836 45.7656C177.836 45.9844 177.703 46.25 177.438 46.5625L171.672 54.8359L178.445 65.5703C178.68 65.9609 178.797 66.25 178.797 66.4375C178.797 66.8594 178 67.0703 176.406 67.0703H174.672C174 67.0703 173.453 67.0156 173.031 66.9062C172.609 66.7969 172.32 66.5859 172.164 66.2734L166.352 56.6875L166.211 56.7578V65.7578C166.211 66.6328 165.375 67.0703 163.703 67.0703H162.555Z" fill="white"/>
</svg>
