<svg width="192" height="129" viewBox="0 0 192 129" fill="none" xmlns="http://www.w3.org/2000/svg">
<path d="M12.5867 27.3932L29.5867 17.8932L47.0867 7.39317C53.4867 3.79317 56.9779 4.09426 61.5867 9.39317L67.4779 15.5943C75.9779 24.2954 75.5867 23.8932 75.5867 32.3932V85.8932C75.5867 96.0942 76.4779 96.0942 68.9779 100.594L37.5867 119.393C28.7867 124.993 26.9779 122.893 22.9779 119.393L12.9779 108.594C7.37783 102.994 6.08671 97.8932 6.08671 92.3932V49.3932C5.68671 35.7932 6.47803 31.0942 12.5867 27.3932Z" fill="#A8A7AC" stroke="black"/>
<path d="M72.3033 22.7396L64.9434 14.9098L58.0746 7.94985C55.3721 5.55612 52.1865 7.94993 52.1865 11.4297V17.0847V28.3945V61.8889V73.6337L68.4781 90.0942C73.4781 95.5942 73.7294 95.5942 73.7294 93.5942L73.7294 87.5942L73.7294 83.9499L73.7294 65.997V37.4052C73.8983 28.3622 74.478 25.5942 72.3033 22.7396Z" fill="#EFE4E4"/>
<path d="M58.9776 75.5945C54.3951 71.1575 54.4776 72.0943 43.5025 78.6057L27.978 87.0942L13.478 94.5942C6.47803 98.0942 7.72088 98.1899 9.27753 100.701C13.9776 106.594 22.9887 116.77 25.4776 118.779C28.5683 121.273 30.0007 120.49 33.0712 118.811L33.1312 118.779C43.8482 112.92 65.6326 100.557 67.8751 99.1942C72.9776 96.0942 74.9776 94.652 72.9776 92.5942C70.2119 89.7487 64.1633 80.6156 58.9776 75.5945Z" fill="#EFE4E4"/>
<path d="M17.644 36.8832L35.9213 27.0942L40.8562 32.6624L35.9822 40.9264L32.2659 36.7247L20.4465 43.0549L19.3499 44.9883V72.5159L21.1166 74.531L32.8141 68.2661L37.1398 61.1708L40.978 65.4418L35.7386 74.3053L17.4612 84.0942L11.978 78.0122V46.2444L17.644 36.8832Z" fill="black"/>
<path d="M104.602 71.3516C99.9141 71.3516 96.4531 70.1328 94.2188 67.6953C92 65.2578 90.8906 61.4688 90.8906 56.3281C90.8906 46.4375 95.5312 41.4922 104.812 41.4922C106.078 41.4922 107.391 41.6172 108.75 41.8672C110.109 42.1172 111.242 42.4688 112.148 42.9219C113.07 43.3594 113.531 43.8516 113.531 44.3984C113.531 44.7891 113.375 45.3047 113.062 45.9453C112.75 46.5703 112.375 47.125 111.938 47.6094C111.516 48.0938 111.141 48.3359 110.812 48.3359C110.734 48.3359 110.523 48.2578 110.18 48.1016C109.43 47.7891 108.641 47.5312 107.812 47.3281C107 47.1094 105.961 47 104.695 47C102.242 47 100.422 47.7812 99.2344 49.3438C98.0625 50.8906 97.4766 53.2344 97.4766 56.375C97.4766 59.5156 98.0703 61.8828 99.2578 63.4766C100.445 65.0703 102.227 65.8672 104.602 65.8672C105.836 65.8672 106.906 65.7422 107.812 65.4922C108.734 65.2422 109.633 64.9219 110.508 64.5312C110.555 64.5156 110.695 64.4609 110.93 64.3672C111.164 64.2578 111.336 64.2031 111.445 64.2031C111.852 64.2031 112.242 64.4453 112.617 64.9297C112.992 65.3984 113.297 65.9375 113.531 66.5469C113.766 67.1406 113.883 67.5703 113.883 67.8359C113.883 68.6016 113.367 69.25 112.336 69.7812C111.32 70.3125 110.086 70.7109 108.633 70.9766C107.195 71.2266 105.852 71.3516 104.602 71.3516ZM126.727 71.3516C123.43 71.3516 120.914 70.3828 119.18 68.4453C117.461 66.5078 116.602 63.7188 116.602 60.0781C116.602 56.4531 117.461 53.6797 119.18 51.7578C120.914 49.8359 123.43 48.875 126.727 48.875C130.023 48.875 132.523 49.8359 134.227 51.7578C135.945 53.6641 136.805 56.4375 136.805 60.0781C136.805 63.7188 135.945 66.5078 134.227 68.4453C132.523 70.3828 130.023 71.3516 126.727 71.3516ZM126.727 66.4531C128.039 66.4531 129 65.9219 129.609 64.8594C130.234 63.7969 130.547 62.2031 130.547 60.0781C130.547 57.9688 130.234 56.3828 129.609 55.3203C129 54.2578 128.039 53.7266 126.727 53.7266C124.133 53.7266 122.836 55.8438 122.836 60.0781C122.836 62.1875 123.148 63.7812 123.773 64.8594C124.414 65.9219 125.398 66.4531 126.727 66.4531ZM150.445 71.3516C147.148 71.3516 144.633 70.3828 142.898 68.4453C141.18 66.5078 140.32 63.7188 140.32 60.0781C140.32 56.4531 141.18 53.6797 142.898 51.7578C144.633 49.8359 147.148 48.875 150.445 48.875C153.742 48.875 156.242 49.8359 157.945 51.7578C159.664 53.6641 160.523 56.4375 160.523 60.0781C160.523 63.7188 159.664 66.5078 157.945 68.4453C156.242 70.3828 153.742 71.3516 150.445 71.3516ZM150.445 66.4531C151.758 66.4531 152.719 65.9219 153.328 64.8594C153.953 63.7969 154.266 62.2031 154.266 60.0781C154.266 57.9688 153.953 56.3828 153.328 55.3203C152.719 54.2578 151.758 53.7266 150.445 53.7266C147.852 53.7266 146.555 55.8438 146.555 60.0781C146.555 62.1875 146.867 63.7812 147.492 64.8594C148.133 65.9219 149.117 66.4531 150.445 66.4531ZM167.555 71.0703C165.883 71.0703 165.047 70.6328 165.047 69.7578V40.9297C165.047 40.4766 165.25 40.1406 165.656 39.9219C166.062 39.6875 166.695 39.5703 167.555 39.5703H168.703C170.375 39.5703 171.211 40.0234 171.211 40.9297V57.4062L171.352 57.4531L176.414 49.9297C176.633 49.6016 176.938 49.3906 177.328 49.2969C177.719 49.1875 178.258 49.1328 178.945 49.1328H180.492C182.055 49.1328 182.836 49.3438 182.836 49.7656C182.836 49.9844 182.703 50.25 182.438 50.5625L176.672 58.8359L183.445 69.5703C183.68 69.9609 183.797 70.25 183.797 70.4375C183.797 70.8594 183 71.0703 181.406 71.0703H179.672C179 71.0703 178.453 71.0156 178.031 70.9062C177.609 70.7969 177.32 70.5859 177.164 70.2734L171.352 60.6875L171.211 60.7578V69.7578C171.211 70.6328 170.375 71.0703 168.703 71.0703H167.555Z" fill="white"/>
<rect x="0.5" y="0.5" width="187" height="128" rx="4.5" stroke="#7B7B7B"/>
</svg>
